IKResults
version=1
nRows=14
nColumns=40
inDegrees=yes

Units are S.I. units (second, meters, Newtons, ...)
Angles are in degrees.

endheader
time	pelvis_tilt	pelvis_list	pelvis_rotation	pelvis_tx	pelvis_ty	pelvis_tz	hip_flexion_r	hip_adduction_r	hip_rotation_r	knee_angle_r	knee_angle_r_beta	ankle_angle_r	subtalar_angle_r	mtp_angle_r	hip_flexion_l	hip_adduction_l	hip_rotation_l	knee_angle_l	knee_angle_l_beta	ankle_angle_l	subtalar_angle_l	mtp_angle_l	lumbar_extension	lumbar_bending	lumbar_rotation	arm_flex_r	arm_add_r	arm_rot_r	elbow_flex_r	pro_sup_r	wrist_flex_r	wrist_dev_r	arm_flex_l	arm_add_l	arm_rot_l	elbow_flex_l	pro_sup_l	wrist_flex_l	wrist_dev_l
      0.51000000	     -0.38126956	      3.57843153	     -4.62654494	     -0.34957394	      0.88004781	     -0.99501600	    -12.55177460	     -3.79666692	     -2.24845537	    -34.05209932	     -0.59432125	     -0.33537306	    -17.13415086	      3.26440522	     28.74183008	     -1.87771544	     11.60584274	    -24.07278915	     -0.42014943	      2.85564187	     16.64454165	      1.42949531	     -0.52271683	     -4.80530540	      7.85633986	     -8.27213725	    -14.07959640	      0.55644171	     41.47566781	     89.95437384	      0.00000000	      0.00000000	    -17.84817250	      8.48177558	     24.43181712	      6.68357523	     89.95437384	      0.00000000	      0.00000000
      0.52000000	     -0.35640398	      3.99103476	     -4.25464947	     -0.33438706	      0.88279942	     -0.99708584	    -11.21617751	     -4.42080916	     -2.82156454	    -37.28697920	     -0.65078056	     -3.87017910	    -17.44653414	      4.95192746	     28.12813992	     -2.92291818	     10.02701827	    -24.70998238	     -0.43127055	      3.17669863	     17.23197616	      2.68258959	     -0.44514020	     -5.25026345	      7.20935323	     -8.53534401	    -13.74732515	      0.41295821	     40.37758382	     89.95437384	      0.00000000	      0.00000000	    -17.61123564	      8.46991911	     23.71081436	      6.78528596	     89.95437384	      0.00000000	      0.00000000
      0.53000000	      0.00259654	      4.21999733	     -3.94067286	     -0.31888410	      0.88610469	     -0.99898387	    -10.30057805	     -4.81758680	     -3.09950898	    -40.21617966	     -0.70190475	     -7.17945311	    -17.79097805	      5.81087044	     26.96182569	     -3.61860068	      9.49080913	    -25.05046202	     -0.43721304	      3.55589216	     17.10651007	      2.81810038	     -0.73991365	     -5.50451087	      6.57353568	     -8.81536965	    -13.47161937	      0.34329552	     39.32518373	     89.95437384	      0.00000000	      0.00000000	    -17.25872511	      8.39829279	     23.29559296	      6.94809355	     89.95437384	      0.00000000	      0.00000000
      0.54000000	      0.16379822	      4.35297734	     -3.47966074	     -0.30411893	      0.88898853	     -1.00104368	     -8.93396104	     -5.11488762	     -3.52217456	    -43.36079841	     -0.75678870	    -10.46201367	    -18.16117457	      6.93827388	     25.87228626	     -4.29732096	      8.75228865	    -25.08181260	     -0.43776021	      3.97018151	     17.08157455	      2.94361546	     -0.96013285	     -5.64792455	      5.85968198	     -9.12648355	    -13.27173277	      0.32034886	     38.37655337	     89.95437384	      0.00000000	      0.00000000	    -16.81641063	      8.33868667	     22.75246105	      7.37915806	     89.95437384	      0.00000000	      0.00000000
      0.55000000	      0.26526260	      4.34624859	     -3.01612839	     -0.29000844	      0.89153829	     -1.00304747	     -7.35412642	     -5.23222993	     -3.76848178	    -46.42517975	     -0.81027224	    -14.05349320	    -18.48070596	      8.29331418	     24.79606003	     -4.80188693	      8.13632781	    -25.04900870	     -0.43718768	      4.57559962	     17.06689557	      3.04065694	     -1.20661708	     -5.61779350	      5.16164985	     -9.38813576	    -13.11918445	      0.36118332	     37.50248542	     89.95437384	      0.00000000	      0.00000000	    -16.26935565	      8.24348399	     22.06109390	      7.93394081	     89.95437384	      0.00000000	      0.00000000
      0.56000000	     -0.49390203	      4.25544717	     -2.37139808	     -0.27691523	      0.89267278	     -1.00523689	     -4.39115105	     -4.98541212	     -3.76443618	    -50.01963760	     -0.87300737	    -15.28854246	    -18.45559237	     20.36672548	     24.68668792	     -5.36491584	      6.75387776	    -25.04507562	     -0.43711903	      5.57409389	     17.31179989	      6.44276658	     -0.55444152	     -5.42955839	      4.42846263	     -9.77917217	    -12.99085650	      0.40959005	     36.72691051	     89.95437384	      0.00000000	      0.00000000	    -15.93610304	      8.27941080	     19.55299971	      8.94513057	     89.95437384	      0.00000000	      0.00000000
      0.57000000	     -0.38118041	      4.15857296	     -2.13588054	     -0.26324336	      0.89499683	     -1.00664960	     -2.68350015	     -4.83892084	     -3.48024966	    -52.53633853	     -0.91693208	    -18.70344038	    -18.68600327	     20.95920229	     23.44345758	     -5.52748292	      6.66128190	    -24.83051304	     -0.43337421	      6.46613935	     16.99695020	      6.24572631	     -0.82164333	     -5.30164890	      3.94064074	     -9.93045374	    -12.90088345	      0.73463018	     35.74214379	     89.95437384	      0.00000000	      0.00000000	    -15.18763650	      8.22681993	     19.14473421	      9.52710660	     89.95437384	      0.00000000	      0.00000000
      0.58000000	     -0.38807441	      4.10266049	     -1.93042413	     -0.25021829	      0.89699376	     -1.00794913	     -0.73234443	     -4.58188303	     -2.90010142	    -54.94642158	     -0.95899597	    -19.98361380	    -18.82780882	     21.18892600	     22.35413275	     -5.67304940	      6.60648827	    -24.61862780	     -0.42967611	      7.36462670	     16.68210833	      6.04862419	     -1.01718018	     -5.20845543	      3.48407130	     -9.97672149	    -12.80152054	      1.09049071	     34.65846542	     89.95437384	      0.00000000	      0.00000000	    -14.37926346	      8.17848105	     18.48352618	     10.23534230	     89.95437384	      0.00000000	      0.00000000
      0.59000000	     -0.66821942	      4.16675186	     -1.83121015	     -0.23758292	      0.89843686	     -1.00914008	      1.55641456	     -4.47705970	     -2.35363524	    -57.28892954	     -0.99988045	    -17.46306718	    -18.81504520	     21.15562624	     21.62332507	     -5.84248617	      6.80496192	    -24.46244887	     -0.42695028	      7.99127112	     16.51841823	      5.95352412	     -0.90417305	     -5.22549505	      3.19070239	    -10.08590655	    -12.69564696	      1.50970174	     33.64981768	     89.95437384	      0.00000000	      0.00000000	    -13.66427152	      8.21819383	     17.06969240	     11.21794122	     89.95437384	      0.00000000	      0.00000000
      0.60000000	     -0.49301790	      4.08503750	     -1.56948689	     -0.22434801	      0.90075415	     -1.01004812	      2.96091396	     -4.09389647	     -1.96031665	    -58.78542855	     -1.02599928	    -13.56673806	    -18.72563558	     20.46188722	     20.19563902	     -5.85422651	      6.99640219	    -24.04229087	     -0.41961714	      8.71865656	     15.98942395	      5.73518038	     -1.24996365	     -5.15157885	      2.70025355	    -10.10204651	    -12.44587392	      1.77143779	     32.40848183	     89.95437384	      0.00000000	      0.00000000	    -12.70498693	      8.29725311	     16.32156496	     11.87778250	     89.95437384	      0.00000000	      0.00000000
      0.61000000	     -0.30140900	      3.96343788	     -1.31901161	     -0.21134633	      0.90318561	     -1.01096409	      4.39298738	     -3.66018790	     -1.54119706	    -59.96412263	     -1.04657137	    -10.22621047	    -18.67841443	     19.70807422	     18.70432861	     -5.81534060	      7.13837280	    -23.50824877	     -0.41029634	      9.32661872	     15.38808913	      5.51373491	     -1.62406658	     -5.03515271	      2.17381419	    -10.02297951	    -12.19569177	      2.01998082	     31.04681442	     89.95437384	      0.00000000	      0.00000000	    -11.62784061	      8.35088636	     15.79379210	     12.42951157	     89.95437384	      0.00000000	      0.00000000
      0.62000000	     -0.11773224	      3.83825012	     -1.09436887	     -0.19844544	      0.90561651	     -1.01177414	      5.85452392	     -3.23688172	     -1.13401472	    -60.78056994	     -1.06082107	     -7.60703600	    -18.62753989	     18.98819827	     17.22499520	     -5.75329082	      7.25096425	    -22.94838493	     -0.40052488	      9.84066399	     14.81051089	      5.28285328	     -1.97886311	     -4.93318549	      1.69105425	     -9.93674734	    -11.94126212	      2.28943210	     29.65426695	     89.95437384	      0.00000000	      0.00000000	    -10.52190699	      8.41482004	     15.26049568	     13.03113533	     89.95437384	      0.00000000	      0.00000000
      0.63000000	      0.40528049	      3.76237839	     -0.93751228	     -0.18510341	      0.90850563	     -1.01242859	      6.75035227	     -2.80364551	     -0.65402896	    -61.01675411	     -1.06494326	     -6.52484304	    -18.25145112	     18.40439762	     15.13834572	     -5.77859071	      7.26527811	    -21.96425828	     -0.38334862	     10.21229310	     14.48233539	      4.76121794	     -2.65610948	     -4.88547850	      1.20877604	     -9.89017813	    -11.66964521	      2.43980902	     28.36790383	     89.95437384	      0.00000000	      0.00000000	     -9.56255499	      8.58341034	     14.10040799	     13.86594783	     89.95437384	      0.00000000	      0.00000000
      0.64000000	      0.40043170	      3.45771170	     -0.61092183	     -0.17254771	      0.91044316	     -1.01327115	      8.35821789	     -2.19182850	     -0.39122423	    -61.19905769	     -1.06812506	     -4.80422613	    -18.29114256	     17.81074542	     13.97871612	     -5.53518425	      7.07032842	    -21.52406492	     -0.37566580	     10.65419738	     13.93804541	      4.52761463	     -2.80135606	     -4.56240121	      0.65623599	     -9.92255886	    -11.44504222	      2.53937411	     27.16694871	     89.95437384	      0.00000000	      0.00000000	     -8.31222642	      8.60947265	     13.83709614	     14.36719476	     89.95437384	      0.00000000	      0.00000000
